<?xml version="1.0" standalone="no"?>
<!DOCTYPE svg PUBLIC "-//W3C//DTD SVG 20010904//EN"
 "http://www.w3.org/TR/2001/REC-SVG-20010904/DTD/svg10.dtd">
<svg version="1.0" xmlns="http://www.w3.org/2000/svg"
 width="64.000000pt" height="64.000000pt" viewBox="0 0 64.000000 64.000000"
 preserveAspectRatio="xMidYMid meet">
<metadata>
Created by potrace 1.15, written by Peter Selinger 2001-2017
</metadata>
<g transform="translate(0.000000,64.000000) scale(0.100000,-0.100000)"
fill="#000000" stroke="none">
<path d="M5 628 c-3 -7 -4 -150 -3 -318 l3 -305 213 0 212 0 3 313 c2 333 1
337 -45 295 -17 -15 -19 -15 -36 0 -23 21 -41 21 -64 0 -17 -15 -20 -15 -43 7
l-25 23 -25 -23 -25 -23 -25 23 c-19 18 -28 21 -37 12 -9 -9 -5 -19 17 -42 33
-34 50 -37 77 -13 17 15 19 15 36 0 23 -21 41 -21 64 0 17 15 20 15 43 -7 24
-23 25 -23 45 -5 l20 18 -2 -274 -3 -274 -185 0 -185 0 -2 300 c-1 207 -4 300
-12 303 -6 2 -13 -2 -16 -10z"/>
<path d="M518 607 c-16 -13 -28 -30 -28 -40 0 -21 13 -22 30 -2 7 8 16 15 21
15 5 0 9 -120 9 -267 l0 -266 -21 19 c-21 19 -21 19 -45 -11 -37 -47 -32 -55
36 -55 l60 0 0 315 c0 293 -1 315 -17 315 -10 -1 -30 -11 -45 -23z"/>
</g>
</svg>
